<?xml version="1.0" encoding="UTF-8"?>
<svg version="1.1" xmlns="http://www.w3.org/2000/svg" width="416" height="416">
<path d="M0 0 C137.28 0 274.56 0 416 0 C416 137.28 416 274.56 416 416 C278.72 416 141.44 416 0 416 C0 278.72 0 141.44 0 0 Z " fill="#111111" transform="translate(0,0)"/>
<path d="M0 0 C2.87284714 3.87521758 2.46075212 7.42767856 2.41906738 12.13525391 C2.42607666 13.1047699 2.43308594 14.07428589 2.44030762 15.07318115 C2.45791781 18.27905895 2.44625378 21.48405457 2.43273926 24.68994141 C2.43543329 26.91666839 2.43931497 29.14339423 2.44433594 31.37011719 C2.4502351 36.03738605 2.44165429 40.70434875 2.42297363 45.37158203 C2.40018418 51.35747649 2.41330497 57.3426536 2.43726349 63.32852173 C2.45170997 67.92673153 2.44712069 72.52477094 2.43675232 77.12298584 C2.43408187 79.3302214 2.43736594 81.53747238 2.44667053 83.74468994 C2.45681688 86.82842042 2.4413611 89.91098536 2.41906738 92.99462891 C2.42716431 93.90903748 2.43526123 94.82344604 2.44360352 95.76556396 C2.36061102 101.95458127 2.36061102 101.95458127 -0.00585938 105.10058594 C-4.26808724 108.08312607 -8.10077006 107.72672067 -13.1505127 107.74194336 C-14.08886963 107.74851456 -15.02722656 107.75508575 -15.99401855 107.76185608 C-19.10827712 107.78161352 -22.22248742 107.7932568 -25.33679199 107.80322266 C-26.39887564 107.80729818 -27.46095928 107.81137371 -28.55522728 107.81557274 C-34.17601707 107.83644338 -39.79678236 107.8507411 -45.41760254 107.86010742 C-51.22850412 107.87117716 -57.03902332 107.90558097 -62.84978962 107.94527912 C-67.31331605 107.97140136 -71.77675075 107.97979534 -76.24034691 107.9833889 C-78.38258638 107.9882658 -80.52482146 107.999911 -82.66698647 108.0184269 C-85.66440923 108.04272576 -88.66083448 108.04187015 -91.6583252 108.03491211 C-92.54422836 108.04772217 -93.43013153 108.06053223 -94.34288025 108.07373047 C-98.46348479 108.03884354 -100.56089054 107.90311665 -104.12602234 105.66056824 C-106.30286091 103.34783407 -107.07795127 102.42990773 -107.15319824 99.26416016 C-105.48650977 71.32901213 -93.66519256 45.85221615 -73.16101074 26.62744141 C-71.49949937 25.24151083 -69.81008026 23.88855517 -68.09851074 22.56494141 C-67.59271484 22.16758789 -67.08691895 21.77023438 -66.5657959 21.36083984 C-57.69204241 14.45579308 -48.3158913 9.22269701 -38.09851074 4.56494141 C-37.31862793 4.20658203 -36.53874512 3.84822266 -35.73522949 3.47900391 C-26.86640632 0.40447854 -8.25098029 -5.64240151 0 0 Z " fill="#FCFCFC" transform="translate(321.0985107421875,216.43505859375)"/>
<path d="M0 0 C29.97895569 5.252723 55.98779549 20.65480875 74.6875 44.80859375 C85.7969042 60.78938352 96.00742215 83.80426794 94.65625 103.640625 C92.7891509 105.94338056 91.29977259 107.31886371 88.65625 108.640625 C85.59565807 108.74465013 82.5576321 108.78742509 79.49658203 108.78588867 C78.54686523 108.78924728 77.59714844 108.7926059 76.61865234 108.79606628 C73.46710923 108.80559495 70.31561914 108.8075204 67.1640625 108.80859375 C64.97931903 108.81180514 62.79457578 108.81516912 60.60983276 108.81867981 C56.02487693 108.82467598 51.43993995 108.82651922 46.85498047 108.82592773 C40.9746009 108.82582612 35.0943421 108.83947574 29.21399117 108.85669994 C24.69989464 108.86780905 20.1858274 108.86984727 15.6717186 108.86931801 C13.50355488 108.87049987 11.33539045 108.87493314 9.16724014 108.88265038 C6.13630936 108.89242764 3.10564189 108.88958105 0.07470703 108.88354492 C-0.82414215 108.88916443 -1.72299133 108.89478394 -2.64907837 108.90057373 C-3.4762738 108.89637924 -4.30346924 108.89218475 -5.1557312 108.88786316 C-5.87213209 108.88840793 -6.58853298 108.88895269 -7.32664299 108.88951397 C-9.71124385 108.59528027 -11.30377857 107.89757178 -13.34375 106.640625 C-14.47274874 104.38262752 -14.47849639 103.1435105 -14.49765015 100.63737488 C-14.50625061 99.80043594 -14.51485107 98.96349701 -14.52371216 98.10119629 C-14.52797211 97.18116821 -14.53223206 96.26114014 -14.53662109 95.31323242 C-14.54479858 94.34561478 -14.55297607 93.37799713 -14.56140137 92.38105774 C-14.58627472 89.16940943 -14.6027757 85.95780535 -14.6171875 82.74609375 C-14.62251118 81.65091242 -14.62783485 80.55573109 -14.63331985 79.42736244 C-14.66005891 73.63151371 -14.67943207 67.83568659 -14.69384766 62.03979492 C-14.71050416 56.04721115 -14.75528866 50.05517641 -14.8062191 44.06280041 C-14.8398402 39.46030531 -14.85141945 34.85794138 -14.85707474 30.25533485 C-14.86380059 28.04609286 -14.87905704 25.8368599 -14.90296555 23.62773705 C-14.93451115 20.536767 -14.93466956 17.44728929 -14.92724609 14.35620117 C-14.94365143 13.44224579 -14.96005676 12.52829041 -14.97695923 11.5866394 C-14.93279799 7.09857994 -14.79328857 5.22732132 -11.98257446 1.55903625 C-7.84758978 -1.44707547 -4.88688213 -0.59435053 0 0 Z " fill="#FEFEFE" transform="translate(231.34375,91.359375)"/>
<path d="M0 0 C1.21945313 -0.04898438 2.43890625 -0.09796875 3.6953125 -0.1484375 C6.875 0.375 6.875 0.375 8.54847717 2.30821228 C10.39629908 6.58019117 10.30206659 10.35847699 10.27905273 14.96704102 C10.28591599 15.92694946 10.29277924 16.88685791 10.29985046 17.87585449 C10.31812829 21.04368952 10.31428025 24.21102989 10.30859375 27.37890625 C10.31315433 29.58178367 10.31845953 31.78465965 10.32447815 33.98753357 C10.33341064 38.60169256 10.33098359 43.21567847 10.32104492 47.82983398 C10.30954186 53.74729522 10.32978691 59.66416093 10.35896206 65.58154392 C10.37729071 70.12912295 10.37703847 74.67655828 10.37132454 79.22416496 C10.37117099 81.40628839 10.37724316 83.58842136 10.38961601 85.77050972 C10.40446485 88.81817376 10.39389438 91.86472474 10.37670898 94.91235352 C10.38637695 95.8158403 10.39604492 96.71932709 10.40600586 97.65019226 C10.36275528 101.30613951 10.24702277 103.71145279 8.4407959 106.93307495 C4.48280452 109.15738551 0.79030027 108.94040148 -3.67944336 108.90844727 C-4.64735306 108.91706284 -5.61526276 108.92567841 -6.61250305 108.93455505 C-9.81355495 108.95726654 -13.01373504 108.9504662 -16.21484375 108.94140625 C-18.43917604 108.94663973 -20.66350609 108.95291519 -22.88783264 108.96018982 C-27.55089761 108.97060379 -32.2136576 108.96601837 -36.87670898 108.95141602 C-42.85364529 108.93423185 -48.82961997 108.9577145 -54.80644894 108.99290562 C-59.40041988 109.0148627 -63.99416018 109.01344208 -68.58816719 109.0051403 C-70.79179501 109.00431977 -72.99543959 109.01120259 -75.19901848 109.02591133 C-78.28033468 109.04332425 -81.35991585 109.02884057 -84.44116211 109.00610352 C-85.80738205 109.02364182 -85.80738205 109.02364182 -87.20120239 109.04153442 C-91.64387507 108.97480817 -93.55799112 108.79903701 -97.21607971 106.06333923 C-99.78784565 102.44151211 -99.44906804 99.7383489 -98.75 95.5625 C-98.64131592 94.81621338 -98.53263184 94.06992676 -98.4206543 93.30102539 C-96.22150147 79.52692562 -90.93559147 66.96740572 -85.125 54.375 C-84.465 54.375 -83.805 54.375 -83.125 54.375 C-82.91875 53.55 -82.7125 52.725 -82.5 51.875 C-76.58633219 36.82202738 -59.75515849 22.52346431 -46.125 14.375 C-44.805 14.375 -43.485 14.375 -42.125 14.375 C-42.125 13.715 -42.125 13.055 -42.125 12.375 C-14.00609373 0.38658008 -14.00609373 0.38658008 0 0 Z " fill="#FDFDFD" transform="translate(189.125,90.625)"/>
<path d="M0 0 C1.47153282 -0.00832352 1.47153282 -0.00832352 2.97279358 -0.01681519 C6.21071431 -0.02861227 9.44723608 -0.00433812 12.68505859 0.02148438 C14.93516984 0.02319524 17.18528308 0.02313004 19.43539429 0.0213623 C24.14804178 0.02301549 28.86021354 0.04171672 33.57275391 0.07324219 C39.62029751 0.112965 45.66721921 0.11728212 51.71486855 0.10977936 C56.35936199 0.10671383 61.00371499 0.11881461 65.64817429 0.13591003 C67.87855524 0.14295157 70.10895211 0.14606318 72.33934402 0.1452179 C75.4517841 0.14701062 78.56347099 0.16834638 81.67578125 0.1953125 C83.06445656 0.1909166 83.06445656 0.1909166 84.48118591 0.18643188 C85.75127754 0.20345657 85.75127754 0.20345657 87.04702759 0.2208252 C87.78257685 0.22455391 88.51812611 0.22828262 89.27596474 0.23212433 C91.81696292 0.73585842 92.69246445 1.53279026 94.20849609 3.61523438 C94.58601952 5.55055904 94.58601952 5.55055904 94.58944702 7.78343201 C94.59790649 8.63160492 94.60636597 9.47977783 94.61508179 10.35365295 C94.60900909 11.28100754 94.6029364 12.20836212 94.59667969 13.16381836 C94.60193665 14.14294189 94.6071936 15.12206543 94.61260986 16.13085938 C94.62583702 19.37451021 94.61706132 22.6176721 94.60693359 25.86132812 C94.60895371 28.11190383 94.61186462 30.3624789 94.6156311 32.61305237 C94.62005828 37.33332543 94.61361123 42.05342834 94.59960938 46.77368164 C94.58252724 52.82787611 94.59235026 58.88167133 94.61032677 64.9358511 C94.62116225 69.58465081 94.61771913 74.23335573 94.60994339 78.88215828 C94.60794023 81.11451324 94.61040469 83.34687677 94.61738205 85.57922173 C94.62499139 88.69879859 94.61339865 91.81772732 94.59667969 94.93725586 C94.60275238 95.86258621 94.60882507 96.78791656 94.61508179 97.74128723 C94.55329116 103.95720327 94.55329116 103.95720327 92.86099243 107.18690491 C89.55468295 110.04470202 85.30303571 109.12552444 81.16552734 109.00195312 C67.54069266 107.67040462 54.63059837 102.10407027 42.20849609 96.61523438 C42.20849609 95.95523438 42.20849609 95.29523438 42.20849609 94.61523438 C41.48404297 94.5146875 40.75958984 94.41414063 40.01318359 94.31054688 C32.06791009 92.34082726 25.64935015 85.4356829 20.20849609 79.61523438 C19.38349609 78.79023438 18.55849609 77.96523438 17.70849609 77.11523438 C16.47099609 75.87773437 16.47099609 75.87773437 15.20849609 74.61523438 C14.69295166 74.14029541 14.17740723 73.66535645 13.64624023 73.17602539 C8.83636896 68.63454836 5.46524346 63.75059371 2.14599609 58.05273438 C1.36675781 56.72665161 1.36675781 56.72665161 0.57177734 55.3737793 C-6.59889744 42.97486283 -11.14776279 30.67159591 -13.79150391 16.61523438 C-14.00291016 15.51050781 -14.21431641 14.40578125 -14.43212891 13.26757812 C-15.42006979 6.47091075 -15.42006979 6.47091075 -12.87783813 3.01013184 C-8.56992846 -0.33266943 -5.31052067 -0.07641538 0 0 Z " fill="#FEFEFE" transform="translate(104.79150390625,216.384765625)"/>
<path d="M0 0 C0.66 0.33 1.32 0.66 2 1 C-3.28 6.28 -8.56 11.56 -14 17 C-14 12.95607032 -12.51908749 11.99868382 -9.8125 9.0625 C-9.03519531 8.20785156 -8.25789062 7.35320312 -7.45703125 6.47265625 C-5.09786332 4.09848566 -2.65532732 2.0327639 0 0 Z " fill="#D8D8D8" transform="translate(253,239)"/>
</svg>
